<?xml version="1.0" standalone="no"?>
<!DOCTYPE svg PUBLIC "-//W3C//DTD SVG 20010904//EN"
 "http://www.w3.org/TR/2001/REC-SVG-20010904/DTD/svg10.dtd">
<svg version="1.0" xmlns="http://www.w3.org/2000/svg"
 width="666.000000pt" height="666.000000pt" viewBox="0 0 666.000000 666.000000"
 preserveAspectRatio="xMidYMid meet">
<metadata>
Created by potrace 1.14, written by Peter Selinger 2001-2017
</metadata>
<g transform="translate(0.000000,666.000000) scale(0.100000,-0.100000)"
fill="#000000" stroke="none">
<path d="M1930 5551 c-99 -52 -108 -177 -18 -244 18 -13 420 -244 893 -512
473 -268 875 -502 893 -518 18 -17 37 -47 42 -67 6 -21 10 -324 10 -787 l0
-752 -24 -27 c-17 -21 -32 -28 -57 -27 -26 0 -215 104 -789 433 -415 238 -777
443 -805 456 -85 40 -174 28 -246 -35 -23 -19 -50 -53 -60 -75 -18 -39 -19
-103 -19 -1444 0 -1269 2 -1407 16 -1438 48 -101 204 -98 256 6 17 33 18 114
18 1273 0 1360 -4 1279 60 1312 16 8 42 15 58 15 20 0 271 -138 803 -442 842
-481 812 -467 918 -438 56 15 132 89 149 146 16 55 17 1919 1 1978 -23 84 -41
95 -1014 647 -506 287 -938 530 -960 540 -51 24 -82 24 -125 0z"/>
</g>
</svg>
