<svg width="33" height="32" viewBox="0 0 33 32" fill="none" xmlns="http://www.w3.org/2000/svg">
<path d="M16.4263 31.6805C25.1658 31.6805 32.2506 24.5957 32.2506 15.8562C32.2506 7.11666 25.1658 0.0318604 16.4263 0.0318604C7.68673 0.0318604 0.601929 7.11666 0.601929 15.8562C0.601929 24.5957 7.68673 31.6805 16.4263 31.6805Z" fill="#03C1A5"/>
<path fill-rule="evenodd" clip-rule="evenodd" d="M18.0021 12.9912C18.0021 12.5999 17.7927 12.2385 17.4533 12.0438L11.227 8.47252C10.9794 8.33047 10.885 8.02035 11.0115 7.76444C11.1494 7.48535 11.494 7.38024 11.7642 7.53487L18.6056 11.4498C18.8987 11.5946 19.0842 11.8932 19.0842 12.2201V19.091C19.0842 19.7257 18.4197 20.1414 17.849 19.8637L12.809 16.9592C12.2993 16.6655 11.6627 17.0333 11.6627 17.6216V26.1101C11.6627 26.4089 11.4204 26.6512 11.1216 26.6512C10.8228 26.6512 10.5806 26.4089 10.5806 26.1101V15.9425C10.5806 15.3078 11.245 14.8921 11.8158 15.1698L17.1833 18.263C17.5474 18.4728 18.0021 18.21 18.0021 17.7898V12.9912Z" fill="black"/>
<path fill-rule="evenodd" clip-rule="evenodd" d="M20.6981 11.5117C20.6997 11.1216 20.4933 10.7604 20.1565 10.5638L13.3801 6.60873C13.2936 6.5582 13.2609 6.44937 13.3053 6.35956C13.3542 6.26059 13.4766 6.22371 13.5721 6.27915L20.5367 10.3269C20.8745 10.5232 21.0817 10.885 21.0801 11.2756L21.0516 18.3409C21.0512 18.4461 20.9658 18.5311 20.8607 18.5311C20.7549 18.5311 20.6693 18.4451 20.6697 18.3394L20.6981 11.5117Z" fill="black"/>
<path fill-rule="evenodd" clip-rule="evenodd" d="M22.6303 10.3921C22.6303 10.0044 22.4248 9.64587 22.0904 9.44982L15.341 5.49364C15.2547 5.44307 15.2222 5.33435 15.2665 5.24468C15.3154 5.1456 15.4381 5.10877 15.5335 5.16447L22.4705 9.21289C22.8059 9.40864 23.0122 9.7678 23.0122 10.1562V17.225C23.0122 17.3304 22.9267 17.4159 22.8212 17.4159C22.7158 17.4159 22.6303 17.3304 22.6303 17.225V10.3921Z" fill="black"/>
<path fill-rule="evenodd" clip-rule="evenodd" d="M13.4492 25.4085C13.3541 25.4085 13.277 25.3314 13.277 25.2362V19.0428C13.277 18.9477 13.3541 18.8706 13.4492 18.8706C13.5443 18.8706 13.6214 18.9477 13.6214 19.0428V25.2362C13.6214 25.3314 13.5443 25.4085 13.4492 25.4085Z" fill="black"/>
<path fill-rule="evenodd" clip-rule="evenodd" d="M15.4215 24.2627C15.316 24.2627 15.2305 24.1772 15.2305 24.0718V20.2698C15.2305 20.1644 15.316 20.0789 15.4215 20.0789C15.5269 20.0789 15.6124 20.1644 15.6124 20.2698V24.0718C15.6124 24.1772 15.5269 24.2627 15.4215 24.2627Z" fill="black"/>
</svg>
